<svg width="1174" height="602" viewBox="0 0 1174 602" fill="none" xmlns="http://www.w3.org/2000/svg">
<rect x="-10" y="10" width="1154" height="582" rx="10" transform="matrix(-1 0 0 1 1154 0)" stroke="#576070" stroke-opacity="0.2" stroke-width="20"/>
<path d="M265.652 274.81H272.532L291.812 324.01L311.172 274.81H317.892L295.012 330.81H288.372L265.652 274.81ZM325.975 288.73H332.135V330.81H325.975V288.73ZM329.015 272.65C330.188 272.65 331.148 273.05 331.895 273.85C332.695 274.596 333.095 275.556 333.095 276.73C333.095 277.85 332.695 278.81 331.895 279.61C331.148 280.41 330.188 280.81 329.015 280.81C327.895 280.81 326.935 280.41 326.135 279.61C325.335 278.81 324.935 277.85 324.935 276.73C324.935 275.556 325.335 274.596 326.135 273.85C326.935 273.05 327.895 272.65 329.015 272.65ZM363.303 288.49C367.196 288.49 370.583 289.37 373.463 291.13C376.343 292.89 378.556 295.37 380.103 298.57C381.703 301.716 382.476 305.45 382.423 309.77C382.476 314.09 381.703 317.85 380.103 321.05C378.556 324.25 376.343 326.73 373.463 328.49C370.636 330.25 367.276 331.13 363.383 331.13C359.383 331.13 355.836 330.223 352.743 328.41C349.703 326.543 347.33 324.01 345.623 320.81C343.916 317.61 343.063 313.93 343.063 309.77C343.063 305.556 343.916 301.876 345.623 298.73C347.33 295.53 349.703 293.023 352.743 291.21C355.783 289.396 359.303 288.49 363.303 288.49ZM364.503 293.61C361.57 293.61 358.956 294.33 356.663 295.77C354.37 297.156 352.556 299.076 351.223 301.53C349.943 303.93 349.303 306.703 349.303 309.85C349.303 312.996 349.943 315.796 351.223 318.25C352.556 320.65 354.37 322.543 356.663 323.93C358.956 325.316 361.57 326.01 364.503 326.01C367.49 326.01 370.13 325.316 372.423 323.93C374.716 322.543 376.503 320.65 377.783 318.25C379.116 315.796 379.783 312.996 379.783 309.85C379.783 306.703 379.116 303.93 377.783 301.53C376.503 299.076 374.716 297.156 372.423 295.77C370.13 294.33 367.49 293.61 364.503 293.61ZM379.783 271.45H386.023V330.81H379.783V271.45ZM432.242 307.29C432.135 304.463 431.469 302.036 430.242 300.01C429.069 297.93 427.442 296.33 425.362 295.21C423.335 294.09 420.935 293.53 418.162 293.53C415.229 293.53 412.642 294.196 410.402 295.53C408.215 296.863 406.482 298.73 405.202 301.13C403.922 303.53 403.282 306.33 403.282 309.53C403.282 312.836 403.922 315.743 405.202 318.25C406.535 320.703 408.375 322.623 410.722 324.01C413.069 325.396 415.735 326.09 418.722 326.09C424.055 326.09 428.402 324.276 431.762 320.65L435.202 324.09C433.175 326.276 430.722 327.983 427.842 329.21C424.962 330.383 421.789 330.97 418.322 330.97C414.162 330.97 410.482 330.09 407.282 328.33C404.135 326.516 401.682 324.01 399.922 320.81C398.162 317.61 397.282 313.93 397.282 309.77C397.282 305.61 398.162 301.956 399.922 298.81C401.682 295.61 404.135 293.13 407.282 291.37C410.482 289.556 414.109 288.623 418.162 288.57C422.695 288.57 426.455 289.556 429.442 291.53C432.429 293.45 434.615 296.17 436.002 299.69C437.442 303.156 438.029 307.236 437.762 311.93H402.162V307.29H432.242ZM465.673 288.57C469.833 288.57 473.513 289.476 476.713 291.29C479.966 293.05 482.5 295.53 484.313 298.73C486.126 301.93 487.033 305.61 487.033 309.77C487.033 313.93 486.126 317.61 484.313 320.81C482.5 324.01 479.966 326.516 476.713 328.33C473.513 330.09 469.833 330.97 465.673 330.97C461.513 330.97 457.806 330.09 454.553 328.33C451.353 326.516 448.846 324.01 447.033 320.81C445.22 317.61 444.313 313.93 444.313 309.77C444.313 305.61 445.22 301.93 447.033 298.73C448.846 295.53 451.353 293.05 454.553 291.29C457.806 289.476 461.513 288.57 465.673 288.57ZM465.673 293.77C462.74 293.77 460.126 294.463 457.833 295.85C455.54 297.183 453.753 299.05 452.473 301.45C451.193 303.85 450.553 306.623 450.553 309.77C450.553 312.97 451.193 315.796 452.473 318.25C453.753 320.65 455.54 322.543 457.833 323.93C460.126 325.263 462.74 325.93 465.673 325.93C468.66 325.93 471.273 325.263 473.513 323.93C475.806 322.543 477.593 320.65 478.873 318.25C480.153 315.796 480.793 312.97 480.793 309.77C480.793 306.623 480.153 303.85 478.873 301.45C477.593 299.05 475.806 297.183 473.513 295.85C471.273 294.463 468.66 293.77 465.673 293.77ZM518.339 274.81H553.939V280.41H524.739V301.05H550.899V306.57H524.739V330.81H518.339V274.81ZM583.898 294.25C580.751 294.196 578.031 294.863 575.738 296.25C573.498 297.583 571.764 299.476 570.538 301.93C569.311 304.33 568.698 307.156 568.698 310.41L566.538 310.17C566.538 305.583 567.231 301.69 568.618 298.49C570.004 295.29 572.004 292.836 574.618 291.13C577.231 289.423 580.324 288.57 583.898 288.57V294.25ZM562.538 288.73H568.778V330.81H562.538V288.73ZM609.423 288.57C613.583 288.57 617.263 289.476 620.463 291.29C623.716 293.05 626.25 295.53 628.063 298.73C629.876 301.93 630.783 305.61 630.783 309.77C630.783 313.93 629.876 317.61 628.063 320.81C626.25 324.01 623.716 326.516 620.463 328.33C617.263 330.09 613.583 330.97 609.423 330.97C605.263 330.97 601.556 330.09 598.303 328.33C595.103 326.516 592.596 324.01 590.783 320.81C588.97 317.61 588.063 313.93 588.063 309.77C588.063 305.61 588.97 301.93 590.783 298.73C592.596 295.53 595.103 293.05 598.303 291.29C601.556 289.476 605.263 288.57 609.423 288.57ZM609.423 293.77C606.49 293.77 603.876 294.463 601.583 295.85C599.29 297.183 597.503 299.05 596.223 301.45C594.943 303.85 594.303 306.623 594.303 309.77C594.303 312.97 594.943 315.796 596.223 318.25C597.503 320.65 599.29 322.543 601.583 323.93C603.876 325.263 606.49 325.93 609.423 325.93C612.41 325.93 615.023 325.263 617.263 323.93C619.556 322.543 621.343 320.65 622.623 318.25C623.903 315.796 624.543 312.97 624.543 309.77C624.543 306.623 623.903 303.85 622.623 301.45C621.343 299.05 619.556 297.183 617.263 295.85C615.023 294.463 612.41 293.77 609.423 293.77ZM673.436 306.41C673.436 302.57 672.396 299.556 670.316 297.37C668.29 295.183 665.436 294.09 661.756 294.09C657.436 294.196 654.05 295.743 651.596 298.73C649.143 301.663 647.916 305.476 647.916 310.17H645.836C645.836 305.263 646.556 301.236 647.996 298.09C649.49 294.89 651.596 292.516 654.316 290.97C657.036 289.37 660.263 288.57 663.996 288.57C667.303 288.57 670.103 289.236 672.396 290.57C674.743 291.903 676.53 293.796 677.756 296.25C679.036 298.65 679.676 301.556 679.676 304.97V330.81H673.436V306.41ZM705.196 306.41C705.196 302.57 704.156 299.556 702.076 297.37C699.996 295.183 697.143 294.09 693.516 294.09C689.196 294.196 685.81 295.743 683.356 298.73C680.903 301.663 679.676 305.476 679.676 310.17H677.516C677.516 305.263 678.236 301.236 679.676 298.09C681.17 294.89 683.276 292.516 685.996 290.97C688.716 289.37 691.97 288.57 695.756 288.57C699.01 288.57 701.81 289.236 704.156 290.57C706.503 291.903 708.29 293.796 709.516 296.25C710.796 298.65 711.436 301.556 711.436 304.97V330.81H705.196V306.41ZM641.756 288.73H647.916V330.81H641.756V288.73ZM745.605 274.81H781.205V280.41H752.005V301.05H778.165V306.57H752.005V330.81H745.605V274.81ZM789.803 288.73H795.963V330.81H789.803V288.73ZM792.843 272.65C794.016 272.65 794.976 273.05 795.723 273.85C796.523 274.596 796.923 275.556 796.923 276.73C796.923 277.85 796.523 278.81 795.723 279.61C794.976 280.41 794.016 280.81 792.843 280.81C791.723 280.81 790.763 280.41 789.963 279.61C789.163 278.81 788.763 277.85 788.763 276.73C788.763 275.556 789.163 274.596 789.963 273.85C790.763 273.05 791.723 272.65 792.843 272.65ZM811.531 271.45H817.771V330.81H811.531V271.45ZM864.039 307.29C863.932 304.463 863.265 302.036 862.039 300.01C860.865 297.93 859.239 296.33 857.159 295.21C855.132 294.09 852.732 293.53 849.959 293.53C847.025 293.53 844.439 294.196 842.199 295.53C840.012 296.863 838.279 298.73 836.999 301.13C835.719 303.53 835.079 306.33 835.079 309.53C835.079 312.836 835.719 315.743 836.999 318.25C838.332 320.703 840.172 322.623 842.519 324.01C844.865 325.396 847.532 326.09 850.519 326.09C855.852 326.09 860.199 324.276 863.559 320.65L866.999 324.09C864.972 326.276 862.519 327.983 859.639 329.21C856.759 330.383 853.585 330.97 850.119 330.97C845.959 330.97 842.279 330.09 839.079 328.33C835.932 326.516 833.479 324.01 831.719 320.81C829.959 317.61 829.079 313.93 829.079 309.77C829.079 305.61 829.959 301.956 831.719 298.81C833.479 295.61 835.932 293.13 839.079 291.37C842.279 289.556 845.905 288.623 849.959 288.57C854.492 288.57 858.252 289.556 861.239 291.53C864.225 293.45 866.412 296.17 867.799 299.69C869.239 303.156 869.825 307.236 869.559 311.93H833.959V307.29H864.039ZM902.59 296.73C900.937 295.716 899.097 294.916 897.07 294.33C895.043 293.743 893.07 293.45 891.15 293.45C888.803 293.45 886.83 293.93 885.23 294.89C883.63 295.796 882.83 297.29 882.83 299.37C882.83 300.97 883.39 302.25 884.51 303.21C885.683 304.116 887.15 304.89 888.91 305.53C890.723 306.116 892.617 306.703 894.59 307.29C896.563 307.876 898.457 308.623 900.27 309.53C902.083 310.383 903.55 311.583 904.67 313.13C905.79 314.676 906.35 316.703 906.35 319.21C906.35 321.93 905.603 324.17 904.11 325.93C902.67 327.636 900.777 328.916 898.43 329.77C896.137 330.57 893.63 330.97 890.91 330.97C887.923 330.97 884.99 330.463 882.11 329.45C879.23 328.436 876.777 326.996 874.75 325.13L877.15 320.89C878.963 322.543 881.123 323.85 883.63 324.81C886.19 325.716 888.697 326.17 891.15 326.17C892.803 326.17 894.297 325.956 895.63 325.53C897.017 325.05 898.11 324.356 898.91 323.45C899.763 322.49 900.19 321.29 900.19 319.85C900.243 318.09 899.71 316.73 898.59 315.77C897.523 314.756 896.083 313.93 894.27 313.29C892.51 312.65 890.617 312.036 888.59 311.45C886.617 310.863 884.723 310.143 882.91 309.29C881.15 308.383 879.71 307.21 878.59 305.77C877.47 304.276 876.91 302.276 876.91 299.77C876.91 297.156 877.603 295.023 878.99 293.37C880.377 291.716 882.163 290.49 884.35 289.69C886.59 288.89 888.99 288.49 891.55 288.49C894.057 288.49 896.483 288.836 898.83 289.53C901.177 290.17 903.23 291.076 904.99 292.25L902.59 296.73Z" fill="#222E48"/>
</svg>
